/* XPM */
static char * backward_xpm[] = {
"16 16 31 1",
" 	c None",
".	c #6598CC",
"+	c #6396CA",
"@	c #CCE5FF",
"#	c #5F92C5",
"$	c #5C8FC2",
"%	c #C8E3FF",
"&	c #578ABD",
"*	c #C2E1FF",
"=	c #5386B9",
"-	c #BCDEFF",
";	c #4E81B4",
">	c #B5DAFF",
",	c #497CAF",
"'	c #95BFEB",
")	c #AED7FF",
"!	c #4477AA",
"~	c #8EBBEA",
"{	c #A7D3FF",
"]	c #4073A6",
"^	c #89B8E9",
"/	c #A1D0FF",
"(	c #3B6EA1",
"_	c #84B5E8",
":	c #9CCEFF",
"<	c #386B9E",
"[	c #80B3E7",
"}	c #98CCFF",
"|	c #34679A",
"1	c #7FB2E6",
"2	c #326598",
"                ",
"      ..      ..",
"     +@+     +@+",
"    #@@#    #@@#",
"   $@%%$   $@%%$",
"  &@***&  &@***&",
" =@----= =@----=",
";@>>>>>;;@>>>>>;",
",'))))),,'))))),",
" !~{{{{! !~{{{{!",
"  ]^///]  ]^///]",
"   (_::(   (_::(",
"    <[}<    <[}<",
"     |1|     |1|",
"      22      22",
"                "};
