/* XPM */
static char * forward_xpm[] = {
"16 16 31 1",
" 	c None",
".	c #6598CC",
"+	c #6396CA",
"@	c #CCE5FF",
"#	c #5F92C5",
"$	c #5C8FC2",
"%	c #C8E3FF",
"&	c #578ABD",
"*	c #C2E1FF",
"=	c #5386B9",
"-	c #BCDEFF",
";	c #4E81B4",
">	c #B5DAFF",
",	c #497CAF",
"'	c #AED7FF",
")	c #95BFEB",
"!	c #4477AA",
"~	c #A7D3FF",
"{	c #8EBBEA",
"]	c #4073A6",
"^	c #A1D0FF",
"/	c #89B8E9",
"(	c #3B6EA1",
"_	c #9CCEFF",
":	c #84B5E8",
"<	c #386B9E",
"[	c #98CCFF",
"}	c #80B3E7",
"|	c #34679A",
"1	c #7FB2E6",
"2	c #326598",
"                ",
"..      ..      ",
"+@+     +@+     ",
"#@@#    #@@#    ",
"$%%@$   $%%@$   ",
"&***@&  &***@&  ",
"=----@= =----@= ",
";>>>>>@;;>>>>>@;",
",'''''),,'''''),",
"!~~~~{! !~~~~{! ",
"]^^^/]  ]^^^/]  ",
"(__:(   (__:(   ",
"<[}<    <[}<    ",
"|1|     |1|     ",
"22      22      ",
"                "};
