/* XPM */
static char * open_sound_xpm[] = {
"16 15 76 1",
" 	c None",
".	c #000000",
"+	c #030608",
"@	c #215579",
"#	c #1E4E6F",
"$	c #050F15",
"%	c #353C45",
"&	c #3B434D",
"*	c #3D637E",
"=	c #C6CDD7",
"-	c #325A79",
";	c #899973",
">	c #454A40",
",	c #294A63",
"'	c #090A0C",
")	c #7E8FA5",
"!	c #7F99B4",
"~	c #718BA7",
"{	c #65839D",
"]	c #376485",
"^	c #B6D791",
"/	c #DFF0D0",
"(	c #08090A",
"_	c #0D0F12",
":	c #3B434E",
"<	c #5D6A7A",
"[	c #8294AB",
"}	c #B4C4D3",
"|	c #333A43",
"1	c #010102",
"2	c #142632",
"3	c #A4CB62",
"4	c #4D7492",
"5	c #8597AF",
"6	c #0D212F",
"7	c #050506",
"8	c #38551E",
"9	c #9AEA53",
"0	c #FAFCFE",
"a	c #7F97B0",
"b	c #9FACBF",
"c	c #7F8794",
"d	c #585D65",
"e	c #1D1F21",
"f	c #090E05",
"g	c #F5F6F7",
"h	c #839CB5",
"i	c #9BACC2",
"j	c #A8B6CA",
"k	c #B3BFD1",
"l	c #ACB4C5",
"m	c #0A0F05",
"n	c #EAEDF3",
"o	c #EEF1F3",
"p	c #0B1D29",
"q	c #0E2636",
"r	c #687689",
"s	c #8898AE",
"t	c #98A9BE",
"u	c #929FB0",
"v	c #464B52",
"w	c #142430",
"x	c #DCE2EA",
"y	c #E4E9ED",
"z	c #020709",
"A	c #1D1E21",
"B	c #AAB2C2",
"C	c #CAD6E1",
"D	c #D1D9E5",
"E	c #BECAD9",
"F	c #212529",
"G	c #5A616C",
"H	c #ABB7C8",
"I	c #BBC4D6",
"J	c #C2CBDB",
"K	c #305F81",
"                ",
"    .+.....     ",
"@#$.......      ",
"@%..&*=-;>,     ",
"@'..)!~{]^/@@@  ",
"@(.._:<[]^/@}@  ",
"@|.....123/@@@@4",
"@567.....899/@04",
"@a@bcde..f9/@g}4",
"@@hijkl..m/@no4 ",
"pqrstuv..w@xyn4 ",
"z.......ABCDxE4 ",
".....(FGHIJCD4  ",
"K@@@@@@@@@@@@4  ",
"                "};
