/* XPM */
static char * open_anim_xpm[] = {
"16 15 63 1",
" 	c None",
".	c #376485",
"+	c #284962",
"@	c #000000",
"#	c #215579",
"$	c #091016",
"%	c #8DA0B9",
"&	c #274051",
"*	c #090A08",
"=	c #8192A9",
"-	c #07090B",
";	c #090C0F",
">	c #1A2F3F",
",	c #133146",
"'	c #373E48",
")	c #505B69",
"!	c #244157",
"~	c #0D212F",
"{	c #B4C4D3",
"]	c #1A4460",
"^	c #060A0E",
"/	c #356181",
"(	c #2C506A",
"_	c #061119",
":	c #4D7492",
"<	c #205478",
"[	c #282B2F",
"}	c #203A4E",
"|	c #9AEA53",
"1	c #91DD4E",
"2	c #050802",
"3	c #DCEDCD",
"4	c #FAFCFE",
"5	c #7F97B0",
"6	c #14364C",
"7	c #1B4765",
"8	c #F5F6F7",
"9	c #1F5173",
"0	c #0C0F11",
"a	c #989A9E",
"b	c #EEF1F3",
"c	c #0F2737",
"d	c #101214",
"e	c #A0AEC1",
"f	c #B3BFD1",
"g	c #BBC4D6",
"h	c #1A3040",
"i	c #6A6C6E",
"j	c #EAEDF3",
"k	c #1C4867",
"l	c #020203",
"m	c #606B7B",
"n	c #9BACC2",
"o	c #A8B6CA",
"p	c #7D838F",
"q	c #3D3E41",
"r	c #BECAD9",
"s	c #091823",
"t	c #1E242A",
"u	c #94A5BD",
"v	c #A0A8B7",
"w	c #121314",
"x	c #305F81",
"                ",
"     .+@@@@     ",
"##### $@@@@     ",
"#%%%%&@@*@@     ",
"#%%%=-@;>@@,##  ",
"#%%%'@@)!@@~{#  ",
"#%#]@@^/(@@_###:",
"#%<[@@}|1@@23#4:",
"#56@@@@@@@@@78{:",
"#90@@@@@@@@@ab: ",
"#c@@defggh@@ij: ",
"kl@@mnofgp@@qr: ",
"s@@t%unofv@@w:  ",
"x############:  ",
"                "};
