/* XPM */
static char * open_image_xpm[] = {
"16 15 54 1",
" 	c None",
".	c #000000",
"+	c #020406",
"@	c #366282",
"#	c #376485",
"$	c #215579",
"%	c #14354B",
"&	c #DFF0D0",
"*	c #8DA0B9",
"=	c #343B44",
"-	c #253C4C",
";	c #CAD2DC",
">	c #CAE2AA",
",	c #111316",
"'	c #63778C",
")	c #718BA7",
"!	c #65839D",
"~	c #B6D791",
"{	c #7B8BA1",
"]	c #060708",
"^	c #8A9DB6",
"/	c #B4C4D3",
"(	c #576373",
"_	c #091721",
":	c #ADD668",
"<	c #4D7492",
"[	c #636771",
"}	c #C2CBDB",
"|	c #9AEA53",
"1	c #FAFCFE",
"2	c #0F1215",
"3	c #8B95A3",
"4	c #BBC4D6",
"5	c #F5F6F7",
"6	c #1C4A69",
"7	c #070809",
"8	c #A5B3C6",
"9	c #B3BFD1",
"0	c #EAEDF3",
"a	c #EEF1F3",
"b	c #292D34",
"c	c #9BACC2",
"d	c #A8B6CA",
"e	c #DCE2EA",
"f	c #E4E9ED",
"g	c #0C1F2D",
"h	c #4A5461",
"i	c #94A5BD",
"j	c #CAD6E1",
"k	c #D1D9E5",
"l	c #BECAD9",
"m	c #040A0E",
"n	c #637589",
"o	c #305F81",
"                ",
"   ..+@##       ",
"$$%...#&&#      ",
"$*=..-;#>&#     ",
"$*,..')!#~&$$$  ",
"${..]^**#~&$/$  ",
"$(.._$###:&$$$$<",
"$=..[}#|||||&$1<",
"$2..34}#|||&$5/<",
"6..78944#|&$0a< ",
"%..bcd944#$ef0< ",
"g..hicd944jkel< ",
"m..n*icd94}jk<  ",
"o$$$$$$$$$$$$<  ",
"                "};
