/* XPM */
static char * open_font_xpm[] = {
"16 15 52 1",
" 	c None",
".	c #000000",
"+	c #215579",
"@	c #14354B",
"#	c #8DA0B9",
"$	c #343B44",
"%	c #253C4C",
"&	c #CAD2DC",
"*	c #376485",
"=	c #CAE2AA",
"-	c #DFF0D0",
";	c #111316",
">	c #63778C",
",	c #718BA7",
"'	c #65839D",
")	c #B6D791",
"!	c #7B8BA1",
"~	c #060708",
"{	c #8A9DB6",
"]	c #B4C4D3",
"^	c #576373",
"/	c #A6B29A",
"(	c #4D7492",
"_	c #030501",
":	c #94E150",
"<	c #9AEA53",
"[	c #FAFCFE",
"}	c #0F1215",
"|	c #8B95A3",
"1	c #BBC4D6",
"2	c #C2CBDB",
"3	c #F5F6F7",
"4	c #1C4A69",
"5	c #070809",
"6	c #A5B3C6",
"7	c #B3BFD1",
"8	c #EAEDF3",
"9	c #EEF1F3",
"0	c #292D34",
"a	c #9BACC2",
"b	c #A8B6CA",
"c	c #DCE2EA",
"d	c #E4E9ED",
"e	c #0C1F2D",
"f	c #4A5461",
"g	c #94A5BD",
"h	c #CAD6E1",
"i	c #D1D9E5",
"j	c #BECAD9",
"k	c #040A0E",
"l	c #637589",
"m	c #305F81",
"                ",
"   ........     ",
"++@........     ",
"+#$..%&*=-*     ",
"+#;..>,'*)-+++  ",
"+!..~{##*)-+]+  ",
"+^......../++++(",
"+$......._:<-+[(",
"+}..|12*<<<-+3](",
"4..56711*<-+89( ",
"@..0ab711*+cd8( ",
"e..fgab711hicj( ",
"k..l#gab712hi(  ",
"m++++++++++++(  ",
"                "};
