/* XPM */
static char * open_video_xpm[] = {
"16 15 71 1",
" 	c None",
".	c #000000",
"+	c #376485",
"@	c #366384",
"#	c #081620",
"$	c #163A52",
"%	c #215579",
"&	c #DFF0D0",
"*	c #8E9984",
"=	c #0E2636",
"-	c #46505C",
";	c #8DA0B9",
">	c #467291",
",	c #CAD2DC",
"'	c #345F7E",
")	c #141711",
"!	c #14354C",
"~	c #2D333B",
"{	c #7F99B4",
"]	c #718BA7",
"^	c #2F3D49",
"/	c #141613",
"(	c #1F5072",
"_	c #1A4562",
":	c #131519",
"<	c #798A9F",
"[	c #030405",
"}	c #8B9682",
"|	c #B4C4D3",
"1	c #205376",
"2	c #020303",
"3	c #1F5173",
"4	c #101E28",
"5	c #242D16",
"6	c #DEEFCF",
"7	c #4D7492",
"8	c #181B1F",
"9	c #9198A7",
"0	c #8C939E",
"a	c #79B841",
"b	c #9AEA53",
"c	c #FAFCFE",
"d	c #2C353E",
"e	c #676E78",
"f	c #1E1F22",
"g	c #39581F",
"h	c #F5F6F7",
"i	c #112D41",
"j	c #0D0E10",
"k	c #09090A",
"l	c #315A78",
"m	c #EAEDF3",
"n	c #EEF1F3",
"o	c #173D56",
"p	c #656A73",
"q	c #BBC4D6",
"r	c #DCE2EA",
"s	c #E4E9ED",
"t	c #4F6E8A",
"u	c #191B1E",
"v	c #AFBBCC",
"w	c #CAD6E1",
"x	c #D1D9E5",
"y	c #BECAD9",
"z	c #65839D",
"A	c #090B0D",
"B	c #6E7A89",
"C	c #A8B6CA",
"D	c #B3BFD1",
"E	c #C2CBDB",
"F	c #305F81",
"                ",
"...  +++@...    ",
"#..$% +&*...    ",
"=..-;>,')...    ",
"!..~;{]^../(%%  ",
"_..:;;<[..}%|%  ",
"12..3%4..56%%%%7",
"%8..90...abb&%c7",
"%d..ef..gbb&%h|7",
"%i..j..klb&%mn7 ",
"%o.....pq+%rsm7 ",
"%t....uvqqwxry7 ",
"%zA...BCDqEwx7  ",
"F%%%%%%%%%%%%7  ",
"                "};
