/* XPM */
static char * play_xpm[] = {
"16 16 65 1",
" 	c None",
".	c #8D57C7",
"+	c #8C55C6",
"@	c #8951C4",
"#	c #CAB1E4",
"$	c #A174D1",
"%	c #854BC3",
"&	c #D3BEE9",
"*	c #D5C1EA",
"=	c #A276D1",
"-	c #8144C1",
";	c #CEB7E7",
">	c #E7DCF3",
",	c #CCB4E6",
"'	c #A378D2",
")	c #7E40BF",
"!	c #CBB2E5",
"~	c #DECFEF",
"{	c #E4D8F2",
"]	c #9E70CF",
"^	c #7B3EBB",
"/	c #C8AEE3",
"(	c #DDCDEE",
"_	c #D8C5EC",
":	c #E1D3F0",
"<	c #D0BAE8",
"[	c #925EC9",
"}	c #773CB5",
"|	c #C5A9E2",
"1	c #D9C7EC",
"2	c #D6C3EB",
"3	c #DCCCEE",
"4	c #884FC4",
"5	c #7239AE",
"6	c #C2A4E1",
"7	c #D2BCE9",
"8	c #7A3EBA",
"9	c #6D37A6",
"0	c #BFA0DF",
"a	c #B693DB",
"b	c #743BB1",
"c	c #6935A0",
"d	c #BA98DD",
"e	c #CDB5E6",
"f	c #AE88D7",
"g	c #733AAF",
"h	c #65339A",
"i	c #B794DB",
"j	c #C7ACE3",
"k	c #A77ED3",
"l	c #623196",
"m	c #B390DA",
"n	c #C6ABE3",
"o	c #9F71D0",
"p	c #5E3090",
"q	c #9C6DCE",
"r	c #753BB2",
"s	c #5B2E8B",
"t	c #AF8AD8",
"u	c #7139AC",
"v	c #592D88",
"w	c #8F59C8",
"x	c #6E38A8",
"y	c #5A2E8A",
"z	c #572C85",
"    .+          ",
"    @#$         ",
"    %&*=        ",
"    -;>,'       ",
"    )!~{,]      ",
"    ^/(_:<[     ",
"    }|1223_4    ",
"    5627772~8   ",
"    907;;<;ab   ",
"    cd;!e#fg    ",
"    hi!#jkb     ",
"    lm!nob      ",
"    pmjqr       ",
"    st=u        ",
"    vwx         ",
"    yz          "};
