/* XPM */
static char * save_lib_xpm[] = {
"16 15 37 1",
" 	c None",
".	c #5F666D",
"+	c #1B4467",
"@	c #65839D",
"#	c #FFFFFF",
"$	c #DFDFDF",
"%	c #000000",
"&	c #0C0C0C",
"*	c #5B7A90",
"=	c #7A90AC",
"-	c #BCBDBE",
";	c #757576",
">	c #474747",
",	c #5D7C93",
"'	c #5F5F5F",
")	c #878787",
"!	c #161617",
"~	c #C7C7C7",
"{	c #FBFBFB",
"]	c #394D5B",
"^	c #192228",
"/	c #2D3540",
"(	c #404C5B",
"_	c #305F81",
":	c #050B0F",
"<	c #254A64",
"[	c #A5B0BA",
"}	c #9099A2",
"|	c #090A0A",
"1	c #DDE2EA",
"2	c #2A4257",
"3	c #3A3C3E",
"4	c #E1E6EE",
"5	c #192734",
"6	c #080C11",
"7	c #C3C5C8",
"8	c #D6DFE7",
"............... ",
".+@#####$%%&*+. ",
".=@#----;%%>,=. ",
".=@#####'%%),=. ",
".=@#----!%%~,=. ",
".=@####$%%&{,=. ",
".==,,,,]%%^,==. ",
".======/%%(===. ",
".===___:%%<_==. ",
".==_[[}%%|1#_=. ",
".==_[+2%%34#_=. ",
".==_[+5%%%%%%%%%",
".==_[+6%%%%%%%%%",
".==_778#####_=. ",
" .............  "};
