/* XPM */
static char * save_sound_xpm[] = {
"16 15 68 1",
" 	c None",
".	c #5F666D",
"+	c #1B4467",
"@	c #65839D",
"#	c #FFFFFF",
"$	c #F8F8F8",
"%	c #909090",
"&	c #3B3B3B",
"*	c #101010",
"=	c #010101",
"-	c #000000",
";	c #7A90AC",
">	c #BCBDBE",
",	c #ADAEAF",
"'	c #212222",
")	c #606060",
"!	c #6B6B6B",
"~	c #DFDFDF",
"{	c #FAFAFA",
"]	c #547085",
"^	c #526174",
"/	c #1D1F21",
"(	c #0C0C0C",
"_	c #A8A8A9",
":	c #5D7C93",
"<	c #0F0F0F",
"[	c #191919",
"}	c #6C6C6C",
"|	c #A9A9A9",
"1	c #567288",
"2	c #212D35",
"3	c #020203",
"4	c #2E3641",
"5	c #5A6067",
"6	c #7388A3",
"7	c #303944",
"8	c #030405",
"9	c #222527",
"0	c #305F81",
"a	c #2D5A7A",
"b	c #22435B",
"c	c #162D3D",
"d	c #070E13",
"e	c #050606",
"f	c #A5B0BA",
"g	c #B7BFC7",
"h	c #C6CCD3",
"i	c #D2D9E0",
"j	c #E1E6EE",
"k	c #EBEBEB",
"l	c #060607",
"m	c #091723",
"n	c #1E2F3E",
"o	c #324E67",
"p	c #B6BCC2",
"q	c #CED5DC",
"r	c #C4C9D0",
"s	c #656565",
"t	c #020508",
"u	c #13161A",
"v	c #565C63",
"w	c #96A0A9",
"x	c #0B0C0C",
"y	c #373737",
"z	c #193345",
"A	c #758AA5",
"B	c #C3C5C8",
"C	c #D6DFE7",
"............... ",
".+@####$%&*=----",
".;@#>>,'------- ",
".;@###)--!~{]^/ ",
".;@#>>(--_>#:;. ",
".;@###<--[}|1;. ",
".;;:::2-----345 ",
".;;;;;678-----9 ",
".;;;0000abcd--e ",
".;;0fffghijk--l ",
".;;0fmnopqrs--9 ",
".;;0ft-------uv ",
".;;0w-----xyzA. ",
".;;0BBC#####0;. ",
" .............  "};
