/* XPM */
static char * save_image_xpm[] = {
"16 15 42 1",
" 	c None",
".	c #5F666D",
"+	c #1B4467",
"@	c #65839D",
"#	c #FFFFFF",
"$	c #DFDFDF",
"%	c #000000",
"&	c #040405",
"*	c #7A90AC",
"=	c #BCBDBE",
"-	c #9F9F9F",
";	c #1A1C1E",
">	c #5F5F5F",
",	c #323639",
"'	c #1F1F1F",
")	c #4A4F55",
"!	c #050608",
"~	c #5D646B",
"{	c #5D7C93",
"]	c #394D5B",
"^	c #21282F",
"/	c #2D3540",
"(	c #404C5B",
"_	c #305F81",
":	c #050B0F",
"<	c #5F7086",
"[	c #A5B0BA",
"}	c #B7BFC7",
"|	c #C6CCD3",
"1	c #B7BDC3",
"2	c #020406",
"3	c #788DA9",
"4	c #446A8C",
"5	c #82878B",
"6	c #0D1A23",
"7	c #C0C7D1",
"8	c #4F4F50",
"9	c #193244",
"0	c #C3C5C8",
"a	c #18191A",
"b	c #254A64",
"c	c #D6DFE7",
"............... ",
".+@########$%%& ",
".*@#=======-%%; ",
".*@########>%%, ",
".*@#======='%%) ",
".*@#######$%%!~ ",
".**{{{{{{{]%%^. ",
".*********/%%(. ",
".***______:%%<. ",
".**_[[[}|1%%23. ",
".**_[+44|5%%6*. ",
".**_[+4478%%9*. ",
".**_[+440a%%b*. ",
".**_00c#####_*. ",
" .............  "};
