/* XPM */
static char * save_font_xpm[] = {
"16 15 40 1",
" 	c None",
".	c #5F666D",
"+	c #1B4467",
"@	c #65839D",
"#	c #FFFFFF",
"$	c #DFDFDF",
"%	c #000000",
"&	c #7A90AC",
"*	c #BCBDBE",
"=	c #757576",
"-	c #5F5F5F",
";	c #878787",
">	c #5D7C93",
",	c #161617",
"'	c #929394",
")	c #0C0C0C",
"!	c #FBFBFB",
"~	c #394D5B",
"{	c #2D3540",
"]	c #020202",
"^	c #305F81",
"/	c #050B0F",
"(	c #254A64",
"_	c #A5B0BA",
":	c #9099A2",
"<	c #090909",
"[	c #CED5DC",
"}	c #E1E6EE",
"|	c #102A40",
"1	c #37383A",
"2	c #D2D9E0",
"3	c #0A1926",
"4	c #65696E",
"5	c #D5D6D8",
"6	c #DCE2EA",
"7	c #03080C",
"8	c #98999C",
"9	c #CAD2DC",
"0	c #D6DFE7",
"a	c #C3C5C8",
"............... ",
".+@####$%%%%%%%%",
".&@#***=%%%%%%%%",
".&@####-%%;#>&. ",
".&@#***,%%'#>&. ",
".&@###$%%)!#>&. ",
".&&>>>~%%%%%%%% ",
".&&&&&{%%%%%%%] ",
".&&&^^/%%(^^&&. ",
".&&^_:%%<[}#^&. ",
".&&^_|%%12}#^&. ",
".&&^_3%%456#^&. ",
".&&^_7%%890#^&. ",
".&&^aa0#####^&. ",
" .............  "};
