/* XPM */
static char * save_anim_xpm[] = {
"16 15 59 1",
" 	c None",
".	c #5F666D",
"+	c #1B4467",
"@	c #65839D",
"#	c #FFFFFF",
"$	c #BCBCBC",
"%	c #000000",
"&	c #03090E",
"*	c #7A90AC",
"=	c #BCBDBE",
"-	c #B9BABB",
";	c #1F1F20",
">	c #5A6167",
",	c #909090",
"'	c #0C0C0C",
")	c #494E53",
"!	c #ACADAE",
"~	c #0B0B0B",
"{	c #121212",
"]	c #7A7A7A",
"^	c #373B3F",
"/	c #646464",
"(	c #929292",
"_	c #A8A8A8",
":	c #25282B",
"<	c #5D7C93",
"[	c #4A6375",
"}	c #000001",
"|	c #0A0D10",
"1	c #5A788E",
"2	c #131516",
"3	c #798FAB",
"4	c #1B2027",
"5	c #475465",
"6	c #7388A2",
"7	c #030303",
"8	c #305F81",
"9	c #1E3C51",
"0	c #9DA7B1",
"a	c #101112",
"b	c #4C5156",
"c	c #070B0E",
"d	c #BDC3C9",
"e	c #D2D9E0",
"f	c #E1E6EE",
"g	c #172D3E",
"h	c #29516E",
"i	c #030404",
"j	c #2C455B",
"k	c #C0C7D1",
"l	c #D5D6D8",
"m	c #DCE2EA",
"n	c #203F56",
"o	c #0D1B25",
"p	c #101921",
"q	c #446A8C",
"r	c #C3C5C8",
"s	c #CAD2DC",
"t	c #D6DFE7",
"............... ",
".+@######$%%%&. ",
".*@#====-;%%%%> ",
".*@#####,%%'%%) ",
".*@#===!~%{]%%^ ",
".*@####/%%(_%%: ",
".**<<<[}%|1[%%2 ",
".****34%%5*6%%7 ",
".***89%%%%%%%%% ",
".**80a%%%%%%%%% ",
".**8b%%cdef#g%%%",
".**hi%%jklm#n%%%",
".**o%%pqrst#h%%%",
".**8rrt#####8*. ",
" .............  "};
