/* XPM */
static char * save_video_xpm[] = {
"16 15 57 1",
" 	c None",
".	c #5F666D",
"+	c #1B4467",
"@	c #65839D",
"#	c #FFFFFF",
"$	c #161616",
"%	c #000000",
"&	c #DCDCDC",
"*	c #5C7B92",
"=	c #060F17",
"-	c #7A90AC",
";	c #323232",
">	c #808081",
",	c #BCBDBE",
"'	c #3B4F5D",
")	c #737373",
"!	c #808080",
"~	c #F3F3F3",
"{	c #090C0E",
"]	c #767777",
"^	c #3C3C3D",
"/	c #787878",
"(	c #08090A",
"_	c #CFCFCF",
":	c #232323",
"<	c #070707",
"[	c #3B4044",
"}	c #5D7C93",
"|	c #5A798F",
"1	c #010202",
"2	c #58768C",
"3	c #1C252C",
"4	c #191E24",
"5	c #5E656C",
"6	c #15181D",
"7	c #5F7086",
"8	c #58687C",
"9	c #607187",
"0	c #305F81",
"a	c #10212D",
"b	c #1B364A",
"c	c #070F14",
"d	c #2D3640",
"e	c #A5B0BA",
"f	c #585E63",
"g	c #101011",
"h	c #0D0D0D",
"i	c #2B5674",
"j	c #133049",
"k	c #8A8A8A",
"l	c #183D5C",
"m	c #202122",
"n	c #FAFAFA",
"o	c #05080A",
"p	c #979EA3",
"q	c #C3C5C8",
"r	c #D6DFE7",
"............... ",
".+@#$%%&####*=%%",
".-@#;%%>,,,#'%%%",
".-@#)%%!###~{%%%",
".-@#]%%^,,,/%%( ",
".-@#_%%:##&<%%[ ",
".--}|1%%2}3%%45 ",
".----6%%78%%%9. ",
".---0a%%bc%%d-. ",
".--0ef%%g%%hi-. ",
".--0ej%%%%%k0-. ",
".--0el%%%%mn0-. ",
".--0e+o%%%p#0-. ",
".--0qqr#####0-. ",
" .............  "};
