/* XPM */
static char * stop_xpm[] = {
"16 16 25 1",
" 	c None",
".	c #6598CC",
"+	c #6396CA",
"@	c #CCE5FF",
"#	c #5F92C5",
"$	c #5C8FC2",
"%	c #C8E3FF",
"&	c #578ABD",
"*	c #C2E1FF",
"=	c #5386B9",
"-	c #BCDEFF",
";	c #4E81B4",
">	c #B5DAFF",
",	c #497CAF",
"'	c #AED7FF",
")	c #4477AA",
"!	c #A7D3FF",
"~	c #4073A6",
"{	c #A1D0FF",
"]	c #3B6EA1",
"^	c #9CCEFF",
"/	c #386B9E",
"(	c #98CCFF",
"_	c #34679A",
":	c #326598",
"                ",
" .............. ",
" +@@@@@@@@@@@@+ ",
" #@@@@@@@@@@@@# ",
" $%%%%%%%%%%%%$ ",
" &************& ",
" =------------= ",
" ;>>>>>>>>>>>>; ",
" ,'''''''''''', ",
" )!!!!!!!!!!!!) ",
" ~{{{{{{{{{{{{~ ",
" ]^^^^^^^^^^^^] ",
" /((((((((((((/ ",
" _((((((((((((_ ",
" :::::::::::::: ",
"                "};
